<svg xmlns="http://www.w3.org/2000/svg" xmlns:xlink="http://www.w3.org/1999/xlink" width="1373.503" height="1858.304" viewBox="0 0 1373.503 1858.304">
  <defs>
    <clipPath id="clip-Artboard_11_copy_6">
      <rect width="1373.503" height="1858.304"/>
    </clipPath>
  </defs>
  <g id="Artboard_11_copy_6" data-name="Artboard 11 copy 6" clip-path="url(#clip-Artboard_11_copy_6)">
    <path id="Path_1" data-name="Path 1" d="M393.541,1087.939c.2-.212.389-.412.575-.608a32.547,32.547,0,0,1,5.46-5.566c25.575-25.165,46.852-33.159,51.476-34.683a117.071,117.071,0,0,1,13.64-4.139c1.3-21.879,3.521-45.151,6.919-72.5a25.551,25.551,0,0,1,11.714-18.635c6.895-7.168,15.784-11.155,22.368-14.108,1.351-.606,2.738-1.227,3.87-1.776,8.583-4.16,17.61-8.487,26.818-12.712a322.854,322.854,0,0,1-107.412-202.6,326.533,326.533,0,0,1-2.5-40.343c0-178.653,144.826-323.479,323.479-323.479V138.479c-299.224,0-541.793,242.569-541.793,541.793q0,20.358,1.495,40.343c10.772,146.337,79.669,276.513,183.691,367.539Z" transform="translate(-48 -85)" fill="#086aad"/>
    <g id="Group_2" data-name="Group 2" transform="translate(-48 -85)">
      <g id="Group_1" data-name="Group 1">
        <path id="Path_2" data-name="Path 2" d="M471.672,1342.478q-25.141,0-39.222,20.593t-14.085,56.786q0,75.241,57.228,75.238a117.214,117.214,0,0,0,33.521-4.813,335,335,0,0,0,32.625-11.59v59.55q-32.625,14.439-73.812,14.442-59.013,0-90.484-34.232T345.975,1419.5q0-40.472,15.246-71.136t43.858-47.16q28.618-16.488,67.308-16.492a185.441,185.441,0,0,1,80.766,18.364l-21.574,55.448a243.134,243.134,0,0,0-28.885-11.409A100.932,100.932,0,0,0,471.672,1342.478Z" fill="#086aad"/>
        <path id="Path_3" data-name="Path 3" d="M626.466,1454.266v94.851H556.041V1288.455h85.4q106.258,0,106.261,77.022,0,45.286-44.216,70.068l75.953,113.572H699.567L644.3,1454.266Zm0-52.954H639.66q36.9,0,36.908-32.625,0-26.919-36.193-26.925H626.466Z" fill="#086aad"/>
        <path id="Path_4" data-name="Path 4" d="M913.016,1288.455h78.8l-85.4,260.662H823.512l-85.044-260.662h79.163l35.478,132.113q11.051,44.039,12.124,61.334,1.248-12.48,4.994-31.2t6.6-29.415Z" fill="#086aad"/>
        <path id="Path_5" data-name="Path 5" d="M1153.92,1469.954q0,24.249-12.3,43.059t-35.482,29.238q-23.176,10.431-54.38,10.433-26.032,0-43.681-3.655a162.047,162.047,0,0,1-36.727-12.748v-62.76a209.484,209.484,0,0,0,41.9,16.134q21.755,5.8,39.938,5.8,15.692,0,23-5.439t7.312-14a15.409,15.409,0,0,0-2.941-9.36q-2.94-4.008-9.449-8.112t-34.678-16.76q-25.5-11.583-38.246-22.461a69,69,0,0,1-18.9-24.965q-6.152-14.076-6.15-33.34,0-36.012,26.209-56.16t72.028-20.147q40.471,0,82.55,18.721l-21.573,54.38q-36.549-16.758-63.114-16.761-13.734,0-19.97,4.813t-6.239,11.948q0,7.665,7.934,13.727t43.054,22.108q33.7,15.156,46.8,32.537T1153.92,1469.954Z" fill="#086aad"/>
      </g>
    </g>
    <g id="Group_4" data-name="Group 4" transform="translate(-48 -85)">
      <g id="Group_3" data-name="Group 3">
        <path id="Path_6" data-name="Path 6" d="M235.941,1694.381v-.215c0-21.269,15.9-38.886,38.028-38.886,13.642,0,21.806,4.834,29.326,11.924l-5.8,6.23c-6.338-6.016-13.428-10.312-23.633-10.312-16.65,0-29.111,13.535-29.111,30.83v.214c0,17.4,12.568,31.045,29.111,31.045,10.313,0,17.08-3.974,24.278-10.849l5.586,5.478c-7.842,7.949-16.436,13.213-30.078,13.213C251.947,1733.053,235.941,1715.973,235.941,1694.381Z" fill="#018837"/>
        <path id="Path_7" data-name="Path 7" d="M312.859,1656.569h8.487v75.2h-8.487Z" fill="#018837"/>
        <path id="Path_8" data-name="Path 8" d="M330.477,1656.569h9.453l26.748,64.775,26.855-64.775h9.131L370.33,1732.3h-7.519Z" fill="#018837"/>
        <path id="Path_9" data-name="Path 9" d="M411.8,1656.569h8.487v75.2H411.8Z" fill="#018837"/>
        <path id="Path_10" data-name="Path 10" d="M435.863,1656.569h8.486v67.353h42.324v7.842h-50.81Z" fill="#018837"/>
        <path id="Path_11" data-name="Path 11" d="M521.7,1656.569H554.03c9.238,0,16.65,2.793,21.377,7.519a20.771,20.771,0,0,1,5.8,14.825v.214c0,12.461-8.594,19.766-20.411,21.914l23.1,30.723h-10.42l-21.806-29.219H530.182v29.219H521.7Zm31.582,38.349c11.279,0,19.336-5.8,19.336-15.468v-.215c0-9.238-7.09-14.824-19.229-14.824h-23.2v30.507Z" fill="#018837"/>
        <path id="Path_12" data-name="Path 12" d="M592.921,1656.569h54.355v7.734H601.407v25.674h41.035v7.734H601.407v26.319h46.406v7.734H592.921Z" fill="#018837"/>
        <path id="Path_13" data-name="Path 13" d="M655.122,1694.381v-.215c0-20.625,15.146-38.886,37.705-38.886,12.676,0,20.517,3.652,28.037,9.99l-5.479,6.445c-5.8-5.049-12.246-8.593-22.881-8.593-16.65,0-28.574,14.072-28.574,30.83v.214c0,17.94,11.494,31.26,29.756,31.26a35.41,35.41,0,0,0,21.7-7.519v-18.692H692.5v-7.627h31.045v29.971a45.564,45.564,0,0,1-30.185,11.494C669.731,1733.053,655.122,1715.866,655.122,1694.381Z" fill="#018837"/>
        <path id="Path_14" data-name="Path 14" d="M736.982,1656.569h8.486v75.2h-8.486Z" fill="#018837"/>
        <path id="Path_15" data-name="Path 15" d="M756.1,1720.807l5.264-6.23c7.842,7.089,15.361,10.634,25.781,10.634,10.1,0,16.758-5.371,16.758-12.783v-.215c0-6.982-3.76-10.957-19.551-14.287-17.295-3.76-25.244-9.346-25.244-21.7v-.215c0-11.816,10.42-20.517,24.707-20.517,10.957,0,18.8,3.115,26.426,9.238l-4.942,6.553c-6.982-5.694-13.965-8.164-21.7-8.164-9.775,0-16.006,5.371-16.006,12.138v.215c0,7.09,3.867,11.064,20.41,14.609,16.758,3.653,24.493,9.776,24.493,21.27v.215c0,12.89-10.743,21.269-25.674,21.269C774.9,1732.838,765.127,1728.864,756.1,1720.807Z" fill="#018837"/>
        <path id="Path_16" data-name="Path 16" d="M841.615,1664.411H816.371v-7.842h59.082v7.842H850.209v67.353h-8.594Z" fill="#018837"/>
        <path id="Path_17" data-name="Path 17" d="M884.91,1656.569h32.334c9.238,0,16.65,2.793,21.377,7.519a20.771,20.771,0,0,1,5.8,14.825v.214c0,12.461-8.593,19.766-20.41,21.914l23.1,30.723h-10.42l-21.807-29.219H893.4v29.219H884.91Zm31.582,38.349c11.279,0,19.336-5.8,19.336-15.468v-.215c0-9.238-7.09-14.824-19.229-14.824H893.4v30.507Z" fill="#018837"/>
        <path id="Path_18" data-name="Path 18" d="M983.957,1656.032h7.949l34.267,75.732h-9.13l-8.809-19.873H967.306l-8.916,19.873h-8.7Zm20.947,48.232-17.08-38.35-17.188,38.35Z" fill="#018837"/>
        <path id="Path_19" data-name="Path 19" d="M1044.762,1664.411h-25.244v-7.842H1078.6v7.842h-25.244v67.353h-8.594Z" fill="#018837"/>
        <path id="Path_20" data-name="Path 20" d="M1088.809,1656.569h8.486v75.2h-8.486Z" fill="#018837"/>
        <path id="Path_21" data-name="Path 21" d="M1109.541,1694.381v-.215c0-20.732,15.576-38.886,38.457-38.886s38.242,17.939,38.242,38.672v.214c0,20.733-15.576,38.887-38.457,38.887S1109.541,1715.114,1109.541,1694.381Zm67.891,0v-.215c0-17.08-12.461-31.044-29.649-31.044s-29.433,13.75-29.433,30.83v.214c0,17.081,12.461,31.045,29.648,31.045S1177.432,1711.461,1177.432,1694.381Z" fill="#018837"/>
        <path id="Path_22" data-name="Path 22" d="M1197.739,1656.569h7.95l47.373,60.263v-60.263h8.271v75.2h-6.767l-48.555-61.66v61.66h-8.272Z" fill="#018837"/>
      </g>
    </g>
    <path id="Path_23" data-name="Path 23" d="M749.948,138.479V356.793c135.633,0,251.749,83.487,299.815,201.866h228.266C1222.832,317.994,1007.357,138.479,749.948,138.479Z" transform="translate(-48 -85)" fill="#ffe501"/>
    <g id="Group_5" data-name="Group 5" transform="translate(-48 -85)">
      <path id="Path_24" data-name="Path 24" d="M745.441,396.941l8.289,147.25,44.648-140.562L769.788,548.314l78.2-125.043L784.316,556.3,891.158,454.634,796.4,567.65l128.769-71.9-119.886,85.9,142.6-37.619L810.407,597.414l147.48-.973L811.448,613.96l143.089,35.734-146.2-19.449,129.706,70.2-136.765-55.2L909.457,745.494,790.715,658.02l79.845,124L777.3,667.764l46.5,139.961L761.889,673.867,772.12,821l-26.679-145.05L718.762,821l10.231-147.128L667.079,807.726l46.5-139.961L620.321,782.02l79.845-124L581.424,745.494,689.6,645.246l-136.765,55.2,129.706-70.2-146.2,19.449L679.433,613.96,532.994,596.441l147.48.973L542.993,544.028l142.6,37.619-119.886-85.9,128.769,71.9L599.724,454.634,706.566,556.3l-63.674-133.03,78.2,125.043L692.5,403.629l44.648,140.562Z" fill="#ffe501"/>
      <circle id="Ellipse_1" data-name="Ellipse 1" cx="49.052" cy="49.052" r="49.052" transform="translate(696.389 559.917)" fill="none" stroke="#fff" stroke-miterlimit="10" stroke-width="2"/>
    </g>
    <path id="Path_25" data-name="Path 25" d="M423.217,1118.642" transform="translate(-48 -85)" fill="#086aad"/>
    <line id="Line_1" data-name="Line 1" x2="1185.78" transform="translate(109.057 1518.942)" fill="none" stroke="#018837" stroke-miterlimit="10" stroke-width="3"/>
    <g id="Group_6" data-name="Group 6" transform="translate(-48 -85)">
      <path id="Path_26" data-name="Path 26" d="M254.349,1758.17h21l26.706,63.825H279.064l-3.35-8.51h-22.18l-3.259,8.51H227.642Zm16.114,40.286-5.793-15.389-5.794,15.389Z" fill="#018837"/>
      <path id="Path_27" data-name="Path 27" d="M302.876,1758.623H322.7l22.542,27.974v-27.974h21v63.372h-18.83l-23.538-29.242v29.242h-21Z" fill="#018837"/>
      <path id="Path_28" data-name="Path 28" d="M371.682,1758.623h24.262c25.168,0,37.751,12.4,37.751,31.143v.181c0,18.74-12.855,32.048-38.475,32.048H371.682Zm24.715,44.9c9.687,0,15.933-3.984,15.933-13.127v-.182c0-9.143-6.246-13.127-15.933-13.127h-3.531v26.436Z" fill="#018837"/>
      <path id="Path_29" data-name="Path 29" d="M454.249,1758.623h23.719L490.28,1794.2l12.312-35.579h23.357l-25.71,63.825H479.96Z" fill="#018837"/>
      <path id="Path_30" data-name="Path 30" d="M526.947,1758.623h21.184v63.372H526.947Z" fill="#018837"/>
      <path id="Path_31" data-name="Path 31" d="M569.95,1776.548H551.3v-17.925h58.483v17.925h-18.65v45.447H569.95Z" fill="#018837"/>
      <path id="Path_32" data-name="Path 32" d="M626.715,1758.17h21l26.707,63.825H651.43l-3.349-8.51H625.9l-3.259,8.51H600.009Zm16.115,40.286-5.794-15.389-5.794,15.389Z" fill="#018837"/>
      <path id="Path_33" data-name="Path 33" d="M675.242,1758.623h21.184v45.265h29.785v18.107H675.242Z" fill="#018837"/>
      <path id="Path_34" data-name="Path 34" d="M744.954,1812.489,756.27,1799a36.315,36.315,0,0,0,22.18,7.424c3.8,0,5.432-1,5.432-2.716v-.18c0-1.812-1.992-2.807-8.782-4.165-14.213-2.9-26.706-6.971-26.706-20.369v-.181c0-12.041,9.415-21.365,26.888-21.365,12.221,0,21.274,2.9,28.607,8.69l-10.32,14.3a33.239,33.239,0,0,0-19.012-6.246c-3.168,0-4.617,1.086-4.617,2.625V1777c0,1.72,1.72,2.806,8.419,4.074,16.206,2.987,27.069,7.7,27.069,20.46v.18c0,13.309-10.954,21.456-27.974,21.456C764.6,1823.171,753.011,1819.55,744.954,1812.489Z" fill="#018837"/>
      <path id="Path_35" data-name="Path 35" d="M822.45,1776.548H803.8v-17.925h58.483v17.925H843.634v45.447H822.45Z" fill="#018837"/>
      <path id="Path_36" data-name="Path 36" d="M879.215,1758.17h21l26.706,63.825H903.93l-3.35-8.51H878.4l-3.259,8.51H852.508Zm16.115,40.286-5.794-15.389-5.794,15.389Z" fill="#018837"/>
      <path id="Path_37" data-name="Path 37" d="M935.8,1776.548H917.15v-17.925h58.482v17.925H956.983v45.447H935.8Z" fill="#018837"/>
      <path id="Path_38" data-name="Path 38" d="M978.8,1758.623h21.184v63.372H978.8Z" fill="#018837"/>
      <path id="Path_39" data-name="Path 39" d="M1000.35,1812.489l11.317-13.49a36.315,36.315,0,0,0,22.18,7.424c3.8,0,5.432-1,5.432-2.716v-.18c0-1.812-1.992-2.807-8.782-4.165-14.213-2.9-26.706-6.971-26.706-20.369v-.181c0-12.041,9.415-21.365,26.887-21.365,12.222,0,21.275,2.9,28.608,8.69l-10.321,14.3a33.236,33.236,0,0,0-19.011-6.246c-3.168,0-4.617,1.086-4.617,2.625V1777c0,1.72,1.72,2.806,8.419,4.074,16.206,2.987,27.069,7.7,27.069,20.46v.18c0,13.309-10.954,21.456-27.974,21.456C1020,1823.171,1008.408,1819.55,1000.35,1812.489Z" fill="#018837"/>
      <path id="Path_40" data-name="Path 40" d="M1077.846,1776.548H1059.2v-17.925h58.483v17.925h-18.649v45.447h-21.185Z" fill="#018837"/>
      <path id="Path_41" data-name="Path 41" d="M1120.851,1758.623h21.184v63.372h-21.184Z" fill="#018837"/>
      <path id="Path_42" data-name="Path 42" d="M1146.2,1790.49v-.181c0-18.921,14.757-33.044,33.678-33.044,13.941,0,23.356,6.79,28.7,16.477l-17.472,10.23c-2.354-4.526-5.7-7.7-11.5-7.7-7.152,0-11.859,6.246-11.859,13.85v.182c0,8.238,4.888,14.032,11.859,14.032,5.975,0,9.325-3.259,11.95-7.967l17.472,9.869c-5.341,9.415-14.213,17.11-29.965,17.11C1161.5,1823.353,1146.2,1810.135,1146.2,1790.49Z" fill="#018837"/>
      <path id="Path_43" data-name="Path 43" d="M1206.044,1812.489,1217.36,1799a36.315,36.315,0,0,0,22.18,7.424c3.8,0,5.431-1,5.431-2.716v-.18c0-1.812-1.991-2.807-8.781-4.165-14.213-2.9-26.707-6.971-26.707-20.369v-.181c0-12.041,9.416-21.365,26.888-21.365,12.221,0,21.275,2.9,28.608,8.69l-10.321,14.3a33.236,33.236,0,0,0-19.011-6.246c-3.169,0-4.617,1.086-4.617,2.625V1777c0,1.72,1.72,2.806,8.419,4.074,16.205,2.987,27.069,7.7,27.069,20.46v.18c0,13.309-10.954,21.456-27.974,21.456C1225.689,1823.171,1214.1,1819.55,1206.044,1812.489Z" fill="#018837"/>
    </g>
    <g id="Group_7" data-name="Group 7" transform="translate(-48 -85)">
      <path id="Path_44" data-name="Path 44" d="M1278.029,558.659H1049.763a322.527,322.527,0,0,1,23.664,121.614,326.725,326.725,0,0,1-2.5,40.342A321.978,321.978,0,0,1,1001.8,883.247a37.611,37.611,0,0,1,13.836,26.507A26,26,0,0,1,1007,928.4c-6.639,6.076-15.383,10.53-26.783,13.578a28.154,28.154,0,0,1,6.424,2.6c27.567,5.886,48.864,28.247,55.821,58.8,4.863,21.354,5.234,43.79,4.813,60.438a121.717,121.717,0,0,1,25.722,21.487,28.835,28.835,0,0,1,2.879,3.648c5.054,7.236,6.232,14.289,5.022,20.3,118.273-91.383,197.715-230.588,209.35-388.645q1.472-19.981,1.495-40.342A543.512,543.512,0,0,0,1278.029,558.659Z" fill="#018837"/>
    </g>
    <g id="Group_9" data-name="Group 9" transform="translate(-48 -85)">
      <g id="Group_8" data-name="Group 8">
        <path id="Path_45" data-name="Path 45" d="M901.1,922.845c2.439,8.813,14.787,15.933,22.68,16.935a27.4,27.4,0,0,0,19.93-5.171c3.637-2.688,7.944-7.37,8.943-12.286,17.284-1.211,35.341-4.409,44.839-13.265,3.417-3.187,2.4-7.278-.237-9.979a7.01,7.01,0,0,0-3.1-4.554c-37.9-25.151-2.682-114.49-70.457-110.493-57.879,3.413-39.058,81.18-66.939,113.155-.229.262-.142.537-.3.806-2.6,1.568-4.055,5.248-1.4,7.955C867.381,918.524,884.123,921.95,901.1,922.845Z" fill="#086aad"/>
        <path id="Path_46" data-name="Path 46" d="M597.453,911.549c10.659,6.949,23.773,7.874,37.679-3.286,44.019-35.333,26.375-164.911-43.56-132.788C542.857,797.852,548.076,897.121,597.453,911.549Z" fill="#086aad"/>
        <path id="Path_47" data-name="Path 47" d="M1039.9,1135.222q15.919-10.238,31.116-21.579c-.809-9.866-14.37-20.609-14.37-20.609h0a121.974,121.974,0,0,0-25.489-17.993c1.11-23.8.914-47.522-3.919-69.141-5.235-23.427-20.853-42.326-44.64-45.584-2.455-2.733-7.107-3.689-9.851-.574-14.844,16.849-29.618,28.281-53.119,26.571-20.637-1.5-32.406-13.714-47.871-24.644-.159-2.335-1.658-4.591-4.309-4.455-27.543,1.417-45.337,17.437-50.675,44.9l-.045.25a87.241,87.241,0,0,0-32.282-11.5l-1.135-2.123,8.22-6.322-.015.03c.6-.181,1.222-.326,1.837-.482a12.66,12.66,0,0,0,2.543-.866c26.522-13.182,40.979-46.128,28.351-76.132-12.1-28.745-43.829-43.194-72.8-32.067-22.911,8.8-35.573,26.213-37.629,51.215-1.959,23.837,11.665,46.9,32.228,56.263,4.779,2.176,7.9,5.387,10.475,10.476-15.261,2.372-28.5,7.782-39.7,16.45q-1.662-16.36-3.708-32.438a5.881,5.881,0,0,0-4.5-5.009c-2.335-3.257-5.832-5.739-9.643-7.817-4.319-2.355-9.042-4.192-12.935-6.051q-8.555-4.083-17.172-8.1l-.245-.109q-4.73-2.2-9.477-4.348-6.366-2.876-12.773-5.631c-29.719-20.394-66.717-12.8-85.671-6.692a6.262,6.262,0,0,0-3.191.541c-2.7,1.2-5.38,2.425-8.064,3.657-.79.345-1.216.547-1.216.547l-.327.153c-1.276.589-2.546,1.193-3.819,1.789,0,0-4.705,2.205-4.714,2.216-7.209,3.424-14.385,6.926-21.527,10.452-7.33,3.62-17.6,7.158-22.578,14.344a6.007,6.007,0,0,0-4.5,5.181c-3.623,29.705-6.587,60.381-7.714,91.008q-4.064-.117-8.1-.47c-1.382.321-2.765.64-4.152.941-.875.19-1.737.4-2.6.616-36.913,6.3-62.348,37.383-62.348,37.383A539.233,539.233,0,0,0,747.493,1220.9q11.55,0,23.022-.487c1.35.053,2.7.116,4.048.16,4.234-.192,8.464-.492,12.685-.935.5-.087,1-.186,1.5-.278a539.093,539.093,0,0,0,251.073-84.093l.049-.018Zm-627.005-38.983c.594.461,1.193.919,1.789,1.379-.264.213-.518.427-.754.642-.661-.529-1.325-1.054-1.984-1.586Zm439.613,108.392q2.067-.53,4.151-.846Q854.585,1204.216,852.508,1204.631Z" fill="#086aad"/>
      </g>
    </g>
    <path id="Path_48" data-name="Path 48" d="M1217.659,732.6c0,.608.036,1.219-.006,1.824a8.173,8.173,0,0,0,3.869,7.9,40,40,0,0,1,4.191,3.252c2.93,2.578,3.633,5.294,2.248,8.941a61.779,61.779,0,0,1-2.61,5.724,8.6,8.6,0,0,0,0,8.257,59.224,59.224,0,0,1,2.506,5.408c1.553,3.955.848,6.7-2.391,9.476-1.426,1.222-2.923,2.371-4.46,3.45a7.72,7.72,0,0,0-3.362,6.987c.047,2.1.075,4.2-.024,6.3a6.509,6.509,0,0,1-5.1,6.384c-2.277.655-4.611,1.119-6.932,1.607a6.626,6.626,0,0,0-4.946,3.995c-.838,1.864-1.644,3.746-2.588,5.556-2.048,3.922-4.691,5.175-9.033,4.324-2-.392-3.989-.881-5.977-1.352a6.66,6.66,0,0,0-5.812,1.16c-1.676,1.266-3.285,2.622-4.967,3.879-4.259,3.184-7.347,3.172-11.6-.039-1.588-1.2-3.108-2.489-4.683-3.706a6.972,6.972,0,0,0-6.1-1.284c-2.42.546-4.846,1.1-7.3,1.466-3.44.507-5.885-1.085-7.453-4.065a47.662,47.662,0,0,1-2.282-4.966,7.827,7.827,0,0,0-6.628-5.274,45.2,45.2,0,0,1-5.494-1.214c-3.277-.922-5.192-3.075-5.353-6.548-.126-2.7-.117-5.406-.191-8.109a5.556,5.556,0,0,0-2.247-4.265c-1.716-1.393-3.511-2.692-5.205-4.111-3.51-2.942-4.2-5.782-2.445-10.028.7-1.682,1.489-3.329,2.325-4.947a8.556,8.556,0,0,0,0-8.4c-.822-1.562-1.573-3.168-2.261-4.795-1.86-4.4-1.17-7.233,2.5-10.293,1.315-1.1,2.67-2.157,4.075-3.136a7.8,7.8,0,0,0,3.439-7.118c-.058-2.1-.076-4.2.034-6.293a6.417,6.417,0,0,1,4.857-6.22,68.324,68.324,0,0,1,6.926-1.627,6.878,6.878,0,0,0,5.3-4.279c.773-1.771,1.533-3.554,2.425-5.265,2.085-4,4.744-5.256,9.162-4.378,2,.4,3.988.887,5.978,1.35a6.665,6.665,0,0,0,5.8-1.213c1.452-1.1,2.861-2.265,4.3-3.391,4.829-3.788,7.931-3.778,12.78.049,1,.788,2.016,1.559,2.956,2.413a8.421,8.421,0,0,0,8.466,1.907,48.085,48.085,0,0,1,6.154-1.257c3.372-.466,5.783,1.069,7.321,4a51.245,51.245,0,0,1,2.366,5.108,7.739,7.739,0,0,0,6.513,5.181c1.527.229,3.043.561,4.542.936,4.53,1.131,6.194,3.129,6.486,7.751.062.991.009,1.99.009,2.985Zm-50.892,3.066c-1.533.608-3.037.873-4.114,1.7a13.887,13.887,0,0,1-9.057,3c-3.345-.074-5.413,1.81-6.263,4.891a11.408,11.408,0,0,1-4.7,6.548c-3.35,2.369-3.994,4.39-2.793,8.325a13.719,13.719,0,0,1,.016,8.438c-1.276,4.06-.555,6.038,2.987,8.55a10.08,10.08,0,0,1,4.3,5.851c.948,3.717,3.364,5.647,7.214,5.5a11.318,11.318,0,0,1,7.655,2.566,6.766,6.766,0,0,0,9-.008,11.337,11.337,0,0,1,7.66-2.567c3.88.146,6.245-1.81,7.2-5.507a9.9,9.9,0,0,1,4.165-5.749c3.734-2.647,4.383-4.6,3.037-8.983a12.655,12.655,0,0,1-.021-7.63c1.37-4.578.707-6.411-3.217-9.215a9.761,9.761,0,0,1-3.836-5.2c-1.474-4.645-2.9-5.776-7.767-5.9a11.7,11.7,0,0,1-6.907-2.313A30.563,30.563,0,0,0,1166.767,735.663Zm-1.682-16.2.437.262q0,1.3,0,2.608c-.007,5.893,2.791,10.328,7.287,13.831.408.319,1.178.173,1.78.244a9.338,9.338,0,0,0,.087-1.671c-.078-.647-.418-1.269-.462-1.914-.2-3.035-.346-6.074-.5-8.945,2.817,1.2,2.817,1.2,4.808-1.35-2.726.42-4.425-1.2-6.195-2.683-.508-.425-1.027-.84-1.565-1.227-3.108-2.236-5.408-2.248-8.478.005-1.291.947-2.452,2.092-3.809,2.924a17.28,17.28,0,0,1-3.273,1.215,26.919,26.919,0,0,1,3.657-3.567c.544-.455,1.2-.78,1.735-1.239a10.676,10.676,0,0,0,1.088-1.247c-.468-.384-.9-1.038-1.41-1.108-4.384-.595-8.349.255-11.544,3.587-1,1.046-2.1,2-3.324,3.148a6.3,6.3,0,0,0,1.845,1.245c1.541.367,3.211.263,4.7.741a9.131,9.131,0,0,0,9.752-2.3A37.477,37.477,0,0,1,1165.085,719.464Zm-16.768,88.207c-1.181,2.141-2.384,4.23-3.47,6.379a1.664,1.664,0,0,0,.255,1.455c.189.238.915.245,1.3.1,1.422-.547,2.765-1.311,4.205-1.793a10.836,10.836,0,0,0,5.862-4.626c.466-.732.876-1.5,1.39-2.384,1.755,1.335,3.4,2.629,5.084,3.854a5.714,5.714,0,0,0,7.094.029c1.141-.774,2.183-1.694,3.3-2.505.8-.581,1.647-1.1,2.484-1.631,1.054-.668,2.12-1.316,3.181-1.973l-.214-.566a6.177,6.177,0,0,0-2.375.049,48.073,48.073,0,0,0-5.145,2.858c-1.367.847-2.644,1.841-3.94,2.756-.276-.36-.331-.4-.333-.438-.02-.386-.05-.772-.043-1.157a13.822,13.822,0,0,0-5.076-11.391,24.792,24.792,0,0,1-2.717-3.456c-.25-.307-.718-.682-1.025-.635a1.635,1.635,0,0,0-1.061.817,3.226,3.226,0,0,0-.216,1.621c.31,3.122.671,6.24.992,9.154-4.109-.622-8.156.479-12.384,2.938Zm43.394-86.238a10.762,10.762,0,0,0,1.232-2.633c.165-1.005.262-2.375-.281-3.034-.463-.561-1.878-.319-2.867-.469a5.307,5.307,0,0,1-2.01-.445c-1-.644-2.112-1.606-3.112-.779a4.152,4.152,0,0,0-1.152,3.022,27.98,27.98,0,0,0,.966,4.813,44.7,44.7,0,0,0-4.951,2.819,3.057,3.057,0,0,0-1.067,2.49c.121.657,1.226,1.423,2.016,1.6a2.823,2.823,0,0,1,2.311,1.935c.875,2.142,2.663,2.3,4.064.45a21.325,21.325,0,0,0,1.413-2.4,12.884,12.884,0,0,0,2.2,1.814c.87.447,2.046.983,2.824.714a3.121,3.121,0,0,0,1.355-2.378c.085-1.155.674-1.518,1.472-2.087.728-.519,1.6-1.5,1.569-2.232a3.176,3.176,0,0,0-1.772-2.053A24.689,24.689,0,0,0,1191.711,721.433ZM1140,736.952a26.254,26.254,0,0,0,2.673,2.462c1.62,1.135,3.434.428,3.512-1.507.063-1.588.8-2.218,1.993-2.937,1.856-1.114,1.771-2.851-.152-3.827a17.255,17.255,0,0,0-3.292-1.006,13.038,13.038,0,0,0-1.383-.227,33.542,33.542,0,0,0,1.423-3.345c.642-2.111-.561-3.586-2.639-2.995a3.527,3.527,0,0,1-3.5-.843c-1.66-1.244-3.124-.553-3.446,1.485a5.409,5.409,0,0,0-.014,1.8c.279,1.489.653,2.961.946,4.251a43.538,43.538,0,0,0-4.92,2.78,3.014,3.014,0,0,0-1.124,2.469c.172.706,1.3,1.422,2.145,1.665a2.788,2.788,0,0,1,2.16,1.852c.875,2.232,2.71,2.4,4.15.464A23.9,23.9,0,0,0,1140,736.952Zm-14.879,32.434c.45.52.817,1,1.245,1.422a8.089,8.089,0,0,0,1.391,1.162c1.766,1.082,3.457.335,3.53-1.734a2.75,2.75,0,0,1,1.682-2.6,3.011,3.011,0,0,0,1.448-2.142c-.036-.7-.977-1.447-1.66-2a4.269,4.269,0,0,0-1.7-.584c-.872-.2-1.76-.346-2.669-.519a13,13,0,0,0,1.28-2.876c.162-.944.219-2.307-.32-2.858s-1.915-.556-2.852-.392a1.941,1.941,0,0,1-2.049-.444c-.834-.842-2.046-1.731-3.037-.883a4.436,4.436,0,0,0-1.184,3.158,27.281,27.281,0,0,0,.99,4.9c-.794.311-1.682.59-2.507,1a7.433,7.433,0,0,0-2.359,1.48,3.925,3.925,0,0,0-1.195,2.622c.11.659,1.323,1.393,2.171,1.608a2.728,2.728,0,0,1,2.123,1.9c.854,2.13,2.667,2.323,4.07.507A25.388,25.388,0,0,0,1125.117,769.386Zm59.463,34.4a33.416,33.416,0,0,0-4.66,2.55,3.5,3.5,0,0,0-1.34,2.7c.105.689,1.408,1.491,2.3,1.688a2.382,2.382,0,0,1,1.921,1.621c.343.758,1.2,1.73,1.881,1.77a3.847,3.847,0,0,0,2.4-1.335,10.606,10.606,0,0,0,1.393-2.4,24.8,24.8,0,0,0,2.526,2.428c1.752,1.272,3.578.526,3.68-1.6a2.875,2.875,0,0,1,1.7-2.625,3.064,3.064,0,0,0,1.464-2.14,3,3,0,0,0-1.684-1.961,29.45,29.45,0,0,0-4.344-1.233,12.509,12.509,0,0,0,1.253-2.8c.177-.939.23-2.3-.307-2.861s-1.893-.511-2.838-.371c-.816.121-1.379.243-2.043-.427-.809-.816-1.791-1.638-3.075-.984-1.31.667-1.36,2-1.213,3.192C1183.8,800.629,1184.247,802.223,1184.58,803.784Zm20.956-40.5c-.783.311-1.677.593-2.5,1.013a8.342,8.342,0,0,0-2.482,1.594,3.587,3.587,0,0,0-1.065,2.52c.125.652,1.252,1.412,2.045,1.568a2.7,2.7,0,0,1,2.278,1.936c.851,2.124,2.677,2.283,4.07.436a26.045,26.045,0,0,0,1.572-2.675c1.442,1.372,2.482,3.723,4.8,2.823.949-.37,1.318-2.233,1.951-3.417l-.428-.25c.238-.134.47-.279.715-.4,1.16-.567,2.46-1.17,2.37-2.662-.095-1.585-1.535-2.034-2.811-2.414-1.07-.319-2.184-.488-3.291-.727a12.919,12.919,0,0,0,1.247-2.849c.162-.946.235-2.315-.3-2.859s-1.929-.566-2.86-.381a1.89,1.89,0,0,1-2.036-.454c-.841-.843-2.051-1.683-3.059-.869a4.127,4.127,0,0,0-1.163,3A31.1,31.1,0,0,0,1205.536,763.288Zm-64.547,38.468a26.151,26.151,0,0,0,2.592,2.415c1.755,1.249,3.524.472,3.643-1.68a2.678,2.678,0,0,1,1.574-2.522,3.109,3.109,0,0,0,1.529-2.242c-.064-.742-1.054-1.665-1.856-2.024a24.831,24.831,0,0,0-4.189-1.094c.252-.471.559-.98.805-1.518a11.271,11.271,0,0,0,.722-1.843c.534-2.075-.809-3.562-2.819-2.881a2.908,2.908,0,0,1-3.183-.7c-1.846-1.477-3.387-.756-3.7,1.594a4.593,4.593,0,0,0,.027,1.481c.3,1.5.67,2.983,1.028,4.548-.787.3-1.626.554-2.405.934a7.875,7.875,0,0,0-2.385,1.449c-.655.709-1.461,1.82-1.31,2.577.147.732,1.353,1.551,2.232,1.764a2.67,2.67,0,0,1,2.089,1.89c.879,2.122,2.691,2.291,4.086.456A24.043,24.043,0,0,0,1140.989,801.756Zm-14.1-55.226c1.382-3.6.563-7.053-.549-10.51a23.088,23.088,0,0,1-.328-2.6,13.54,13.54,0,0,0-.633-1.849c-.577.318-1.344.494-1.7.975-3.613,4.874-4.825,10.215-2.88,16.093.445,1.344,1.111,2.66-.092,3.932,2.666.917,3.872-1.243,5.479-2.383a3.3,3.3,0,0,1,3-.647,9.743,9.743,0,0,0,8.626-1.684c.692-.53,1.516-.886,2.246-1.372.577-.383,1.1-.844,1.651-1.27-.594-.474-1.118-1.183-1.793-1.383a11.993,11.993,0,0,0-9.16.544c-.7-2.336,1.208-5.438-2.292-6.731C1127.7,740.618,1129.331,743.918,1126.892,746.53Zm75.515-3.319c-.2,3.215,2,5.278,4.591,7.194a53.567,53.567,0,0,1,4.25,3.906l1.878-.345-2.524-4.029a12.313,12.313,0,0,0,7.3-1.662,2.166,2.166,0,0,0,.779-1.3c.041-.254-.442-.689-.78-.89a32.377,32.377,0,0,1-3.394-1.9,8.325,8.325,0,0,0-7.168-1.632c-.846.18-1.662.5-2.575.775,0-1.49.014-2.868,0-4.246-.047-3.794-1.4-5.523-5.085-6.485-.586-.153-1.2-.206-1.773-.4-1.645-.571-2.779.064-3.815,1.53l6.7,1.563c-.453.424-.63.621-.838.78a10.106,10.106,0,0,0-4.379,7.981,22.02,22.02,0,0,1-.586,2.556,10.623,10.623,0,0,0,.007,1.784c.606-.056,1.4.113,1.786-.207C1198.707,746.593,1200.538,744.879,1202.407,743.211Zm-8.766,51.977c1.52,1.934,1.537,2,3.521,1.507,2.158-.539,4.28-1.22,6.485-1.858.9,3.142,3.258,5.47,6.311,7.146a4.7,4.7,0,0,0,1.824.147,10.9,10.9,0,0,0-.062-1.793,17.114,17.114,0,0,1-.613-2.042,10.619,10.619,0,0,0-5.467-8.763,1.813,1.813,0,0,1-.852-1.07c-.307-3.092-.04-5.921,3.037-7.8a14.074,14.074,0,0,0,3.938-3.491c1.7-2.3,1.215-2.534-.492-3.031-1.334,1.412-2.461,2.706-3.7,3.884-1.117,1.063-2.33,2.03-3.546,2.982a9.284,9.284,0,0,1-2.378,1.555,10.694,10.694,0,0,0-6.823,6.307,23.991,23.991,0,0,1-1.625,2.637,1.721,1.721,0,0,0-.26,1.3,1.65,1.65,0,0,0,1.2.615,4.163,4.163,0,0,0,1.442-.322,13.5,13.5,0,0,0,6.646-4.218c.581,2.991-.21,4.352-2.917,5.049C1197.5,794.388,1195.667,794.741,1193.641,795.188Zm-63.5-13.44-2.315-1.867a34.54,34.54,0,0,1-4.2-3.48c-.972-1.083-1.891-1.291-3.494-.873l2.639,3.618c-2.318.588-4.647,1.153-6.957,1.786-.513.14-1.291.463-1.353.809a1.8,1.8,0,0,0,.757,1.43,12.092,12.092,0,0,0,10.738,1.679c.664-.217,1.326-.439,2.307-.763,0,1.821-.089,3.405.027,4.974a10.566,10.566,0,0,0,.737,4.171c1.316,2.413,2.447,3.14,4.519,1.172a18.07,18.07,0,0,1-2.741-2.939c-.428-.713-.139-1.836-.244-2.767-.192-1.708.37-2.618,2.169-3.187,4.055-1.284,6.413-4.353,7.589-8.342.151-.513-.2-1.175-.319-1.768a10.285,10.285,0,0,0-1.615.408,17.284,17.284,0,0,1-1.557.894C1133.848,777.59,1131.393,779.133,1130.144,781.748Z" transform="translate(-48 -85)" fill="#fff"/>
    <path id="Path_49" data-name="Path 49" d="M1058.725,295.83a6.638,6.638,0,0,0-11.954,3.647c-.028.522-.021,1.047-.021,1.571q0,13.221,0,26.441c0,2.27-.7,3.332-2.206,3.35s-2.267-1.077-2.268-3.3q0-19.938-.008-39.877a12.854,12.854,0,0,0-.175-2.7,6.626,6.626,0,0,0-13.062,1.189c-.029.571-.024,1.143-.024,1.715q0,17.58-.01,35.159a3.436,3.436,0,0,1-.266,1.931,3.277,3.277,0,0,1-2.07,1.318c-.639.011-1.454-.739-1.889-1.364a3.7,3.7,0,0,1-.244-1.942c-.012-12.958-.108-25.918.048-38.875.05-4.191-1.162-7.22-5.258-8.714h-2.86c-4.115,1.478-5.317,4.513-5.267,8.706.156,12.956.061,25.916.047,38.874a6.649,6.649,0,0,1-.263,2.106,1.883,1.883,0,0,1-2.148,1.281c-1.068-.113-1.183-.952-1.225-1.793-.026-.523-.016-1.048-.016-1.572q0-15.437,0-30.872c0-.571.011-1.146-.045-1.713a6.693,6.693,0,0,0-6.572-6.132,6.516,6.516,0,0,0-6.584,5.9,59.688,59.688,0,0,0-.126,6.278c.033,7.384.057,14.768.186,22.15a5.588,5.588,0,0,0,.962,3.057c3.77,5.088,7.642,10.1,11.517,15.11a6.219,6.219,0,0,0,4.514,2.435c1.514.145,3.021.4,4.518.673,7.261,1.325,13.915,4.5,20.825,6.9a3.615,3.615,0,0,1,2.2,4.429,3.777,3.777,0,0,1-4.463,2.2c-1.483-.333-2.927-.833-4.4-1.226-.508-.136-1.042-.174-1.967-.321.587.855.9,1.367,1.27,1.841q6.372,8.257,12.751,16.509c1.308,1.7,1.194,3.5-.215,4.551-1.373,1.029-3.053.667-4.363-.942-.15-.185-.289-.379-.434-.567-2.65-3.43-5.286-6.87-7.973-10.27-.256-.325-.83-.4-1.256-.589a4.757,4.757,0,0,0,.032,1.508,5.194,5.194,0,0,0,.923,1.258c3.234,4.181,6.514,8.329,9.664,12.573a4.267,4.267,0,0,1,.875,2.96,3.554,3.554,0,0,1-2,2.1c-1.323.535-2.454-.234-3.312-1.348q-5.01-6.512-10.049-13a4.85,4.85,0,0,0-1.009-1.188,1.329,1.329,0,0,0-1.216-.087,1.419,1.419,0,0,0-.193,1.226,4.092,4.092,0,0,0,.816,1.156q4.324,5.6,8.647,11.194a7.1,7.1,0,0,1,.915,1.437,2.841,2.841,0,0,1-.948,3.44,2.884,2.884,0,0,1-3.457-.112,7.18,7.18,0,0,1-1.061-1.148c-3.358-4.327-6.7-8.67-10.071-12.983-.473-.6-.906-1.83-1.947-1.034-1.1.844-.011,1.607.483,2.263,1.892,2.51,3.839,4.979,5.749,7.475a15.226,15.226,0,0,1,1.456,2.106,2.826,2.826,0,0,1-4.4,3.4,7.1,7.1,0,0,1-.967-1.045q-7.7-9.943-15.374-19.9a21.166,21.166,0,0,1-4.562-10.764,14.225,14.225,0,0,0-2.3-7.122c-3.441-4.68-6.829-9.407-10.473-13.926a7.931,7.931,0,0,0-8.257-2.733c-4.9,1.072-7.373,6.728-4.969,11.483a67.864,67.864,0,0,0,3.828,6.355q10.371,15.9,20.8,31.771c1.7,2.586,3.579,5.055,5.187,7.693,3.158,5.181,5.484,10.666,5.434,16.9-.037,4.525-.035,9.052-.137,13.576-.04,1.772.362,3.174,2.121,3.906h36.882a3.85,3.85,0,0,0,2.081-3.842c.008-4.239.232-8.482.109-12.716a32.95,32.95,0,0,1,4.521-17.592,101.548,101.548,0,0,0,5.458-10.813c2.333-5.569,2.83-11.524,2.834-17.509q.023-29.229.01-58.457A7.886,7.886,0,0,0,1058.725,295.83Z" transform="translate(-48 -85)" fill="#fff"/>
    <g id="Group_11" data-name="Group 11" transform="translate(-48 -85)">
      <g id="Group_10" data-name="Group 10">
        <path id="Path_50" data-name="Path 50" d="M358.57,443.641H341.756s-8.56-.013-8.56,13.03c.407,8.424,6.979,9.77,8.151,9.77h34.237s8.576.011,8.954-10.28c.014-.393.046-.011.051-.4.017-1.52,0-9.373,0-9.373A2.354,2.354,0,0,1,386.613,444h26.808a.789.789,0,0,1,.771.709l6.333,14.323c2.362,5.857,6.955,10.155,14.628,7.393,7.264-2.614,7.64-8.37,6.358-12.413l-15.746-47.73c-2.367-5.653-8.336-8.951-15.807-8.951H373.037c-19.985,0-36.75,23.283-14.051,45.665A.423.423,0,0,1,358.57,443.641Z" fill="#fff"/>
        <circle id="Ellipse_2" data-name="Ellipse 2" cx="24.804" cy="24.804" r="24.804" transform="translate(426.65 363.482)" fill="#fff"/>
      </g>
    </g>
    <g id="Group_12" data-name="Group 12" transform="translate(-48 -85)">
      <path id="Path_51" data-name="Path 51" d="M346.427,825.382h5.541c5.7,0,11.4.031,17.093-.016a4.993,4.993,0,1,0-.333-9.972q-22.162-.006-44.324,0c-.275,0-.551,0-.825.016a5,5,0,0,0,.686,9.966C331.653,825.392,339.04,825.381,346.427,825.382Zm.046,16.733v-.005c7.585,0,15.169.022,22.753-.012a4.983,4.983,0,0,0,1.316-9.759,9.293,9.293,0,0,0-2.448-.226q-21.514-.018-43.029-.007c-.511,0-1.023,0-1.531.043a4.989,4.989,0,0,0,.541,9.956C331.541,842.138,339.007,842.115,346.473,842.115Zm.081,6.737q-10.846,0-21.693,0a13.7,13.7,0,0,0-1.648.063,4.825,4.825,0,0,0-4.107,5.711c.508,2.49,2.433,3.974,5.228,3.975q22.222.011,44.446,0c.275,0,.552,0,.825-.023a4.879,4.879,0,1,0-.769-9.727Q357.7,848.839,346.554,848.852Zm2.372,15.946c-.144-.011-.289-.032-.433-.032-8.135,0-16.271-.022-24.406.011a4.929,4.929,0,0,0-5.1,4.815,4.841,4.841,0,0,0,4.92,4.966c5.422.1,10.847.043,16.27.013a1.143,1.143,0,0,0,.866-.551A19.007,19.007,0,0,1,348.926,864.8Zm16.874-.106,7.97,6.564a4.7,4.7,0,0,0-3.445-6.269A34.677,34.677,0,0,0,365.8,864.692Z" fill="#fff"/>
      <path id="Path_52" data-name="Path 52" d="M301.028,800.808c.181-.594.343-1.2.546-1.782,1.408-4.072,4.964-6.528,9.628-6.565,4.913-.038,9.827-.01,14.741-.01,18,0,36.008-.025,54.011.04a13.568,13.568,0,0,1,5.263.946,9.505,9.505,0,0,1,5.882,8.927c.129,3.494.035,7,.035,10.495q0,21.168.021,42.336a3.407,3.407,0,0,1-.894,2.421c-2.744,3.187-5.427,6.425-8.134,9.643-.263.312-.538.614-1.051,1.2v-1.738q0-27.948,0-55.9c0-4.076-1.961-6.952-5.488-7.971a9.768,9.768,0,0,0-2.67-.358q-26.829-.03-53.658-.011c-4.89,0-8.17,3.239-8.173,8.1q-.022,34.377,0,68.753c0,4.885,3.248,8.07,8.171,8.082q10.5.025,20.991-.012a1.506,1.506,0,0,1,1.617.977,16.948,16.948,0,0,0,4.433,5.594c1.369,1.166,2.717,2.357,4.345,3.771h-1.53q-18.633,0-37.266,0c-5.6,0-9.323-2.955-10.642-8.424a1.158,1.158,0,0,0-.176-.293Z" fill="#fff"/>
      <path id="Path_53" data-name="Path 53" d="M421.8,859.308c-.508,2.478-2,4.361-3.6,6.229q-16.375,19.119-32.694,38.286c-3.634,4.255-8.9,4.638-13.131,1q-10.234-8.8-20.473-17.6a8.445,8.445,0,0,1-2.846-9.338,8.679,8.679,0,0,1,13.814-4.28c4.327,3.522,8.494,7.24,12.731,10.871.622.533,1.248,1.062,1.935,1.647.93-1.077,1.8-2.079,2.666-3.09q12.894-15.114,25.777-30.237c2.406-2.831,5.388-4.1,9.01-3.259a8.436,8.436,0,0,1,6.642,6.877,1.192,1.192,0,0,0,.171.3Z" fill="#fff"/>
      <path id="Path_54" data-name="Path 54" d="M346.427,825.382c-7.387,0-14.774.01-22.162-.007a5,5,0,0,1-.686-9.966c.274-.018.55-.016.825-.016q22.162,0,44.324,0a4.993,4.993,0,1,1,.333,9.972c-5.7.047-11.4.015-17.093.016Z" fill="#fff"/>
      <path id="Path_55" data-name="Path 55" d="M346.473,842.115c-7.466,0-14.932.023-22.4-.01a4.989,4.989,0,0,1-.541-9.956c.508-.041,1.02-.043,1.531-.043q21.514,0,43.029.007a9.293,9.293,0,0,1,2.448.226,4.983,4.983,0,0,1-1.316,9.759c-7.584.034-15.168.012-22.753.012Z" fill="#fff"/>
      <path id="Path_56" data-name="Path 56" d="M346.554,848.853q11.141,0,22.282,0a4.879,4.879,0,1,1,.769,9.727c-.273.025-.55.023-.825.023q-22.223,0-44.446,0c-2.8,0-4.72-1.485-5.228-3.975a4.825,4.825,0,0,1,4.107-5.711,13.7,13.7,0,0,1,1.648-.063Q335.708,848.849,346.554,848.853Z" fill="#fff"/>
      <path id="Path_57" data-name="Path 57" d="M348.926,864.8a19.007,19.007,0,0,0-7.878,9.222,1.143,1.143,0,0,1-.866.551c-5.423.03-10.848.082-16.27-.013a4.841,4.841,0,0,1-4.92-4.966,4.929,4.929,0,0,1,5.1-4.815c8.135-.033,16.271-.012,24.406-.011C348.637,864.766,348.782,864.787,348.926,864.8Z" fill="#fff"/>
      <path id="Path_58" data-name="Path 58" d="M365.8,864.692a34.677,34.677,0,0,1,4.525.295,4.7,4.7,0,0,1,3.445,6.269Z" fill="#fff"/>
    </g>
    <g id="Group_13" data-name="Group 13" transform="translate(-48 -85)">
      <path id="Path_59" data-name="Path 59" d="M297.255,557.5c-15.115,6.816-13.5,37.05,1.825,41.444,3.307,2.116,7.376,2.4,11.691-1C324.429,587.184,318.954,547.719,297.255,557.5Z" fill="#fff"/>
      <path id="Path_60" data-name="Path 60" d="M377.585,593.234a2.13,2.13,0,0,0-.963-1.386c-11.759-7.66-.832-34.87-21.861-33.653-17.958,1.04-12.119,24.725-20.77,34.463-.071.08-.044.164-.092.246a1.525,1.525,0,0,0-.435,2.423c3.823,3.83,9.018,4.873,14.286,5.146.757,2.684,4.589,4.852,7.038,5.158a8.623,8.623,0,0,0,6.183-1.575,7.019,7.019,0,0,0,2.776-3.742c5.362-.369,10.965-1.343,13.912-4.04A1.991,1.991,0,0,0,377.585,593.234Z" fill="#fff"/>
      <path id="Path_61" data-name="Path 61" d="M387.827,625.769c-1.624-7.135-6.47-12.891-13.851-13.884a2.086,2.086,0,0,0-3.056-.174c-4.606,5.131-9.19,8.613-16.482,8.092-6.4-.456-10.055-4.177-14.854-7.506a1.322,1.322,0,0,0-1.336-1.356c-8.546.431-14.068,5.31-15.724,13.675-2.635,13.312-.426,28.29-.08,41.771a1.969,1.969,0,0,0,.657,1.471,1.809,1.809,0,0,0,.934,1.349c6.323,3.082,17.816.86,24.8.94,12.173.139,24.415.729,36.578.155a2,2,0,0,0,1.915-1.4,2.128,2.128,0,0,0,.509-1.34C388.133,654.324,390.792,638.79,387.827,625.769Z" fill="#fff"/>
      <path id="Path_62" data-name="Path 62" d="M325.454,609.529c-.072-.1-.059-.219-.164-.309-2.14-1.827-5.3-2.974-8.115-3.776a1.917,1.917,0,0,0-3.148.851c-1.665,4.879-2.929,9.9-4.364,14.847a52.865,52.865,0,0,1-2.272,7.172,91.759,91.759,0,0,0-2.755-17.044,5.421,5.421,0,0,0,.478-.569c2.592-3.739-2.338-5.608-5.3-4.607a1.094,1.094,0,0,0-.6,1.612c-.018.057-.085.078-.085.144a5.5,5.5,0,0,0,.981,3.143c-.921,3.524-1.57,7.186-2.3,10.711-.007.031-.012.063-.018.1a2.053,2.053,0,0,0-.283.81c0,.224.011.444.009.667-.385,1.922-.772,3.849-1.074,5.792-1.594-3.645-2.291-8.8-2.9-10.961-1.165-4.153-2.247-8.285-4.262-12.116l-.006,0a2.012,2.012,0,0,0-2.586-.917c-4.143,1.8-8.242,3.759-12.308,5.73-2.275,1.1-5.461,2.18-7.006,4.369a1.843,1.843,0,0,0-1.4,1.578c-2.041,16.431-3.42,33.837-1.9,50.358a1.378,1.378,0,0,0,.494.973,1.21,1.21,0,0,0,.964.776c16.436,2.158,33.829,1.594,50.371.873a1.933,1.933,0,0,0,1.87-1.574c.014-.055.068-.064.078-.124,2.633-16.792-6.308-43.579,7.665-56.586A1.243,1.243,0,0,0,325.454,609.529Z" fill="#fff"/>
    </g>
    <g id="Group_14" data-name="Group 14" transform="translate(-48 -85)">
      <path id="Path_63" data-name="Path 63" d="M641.78,226.811a29.618,29.618,0,0,0-24.043,12.2,5.374,5.374,0,0,0-.421,5.551l2.452,4.878a5.394,5.394,0,0,1-.241,5.275l-5.118,8.242a5.4,5.4,0,0,0,.012,5.72l4.986,7.978a5.414,5.414,0,0,1,.084,5.6l-5.25,8.964a5.422,5.422,0,0,0,0,5.467l5.382,9.2a5.412,5.412,0,0,1,.121,5.238l-6.224,11.9a5.337,5.337,0,0,0,5.455-.373c5.094-3.544,16-11.162,16-11.162,9.216-6.6,18.011-13.806,24.872-22.913,5.9-7.835,10.213-17.11,11.006-26.891C672.275,243.9,660.752,226.811,641.78,226.811Z" fill="#fff"/>
      <path id="Path_64" data-name="Path 64" d="M587.843,311.472s10.982,7.63,16.112,11.174c.2.132.409.264.613.373l6.224-11.9a5.415,5.415,0,0,0-.12-5.238l-5.383-9.2a5.427,5.427,0,0,1,0-5.467l5.251-8.964a5.392,5.392,0,0,0-.084-5.6l-4.987-7.978a5.424,5.424,0,0,1-.012-5.72l5.119-8.242a5.4,5.4,0,0,0,.24-5.275c-2.487-4.95-4.7-9.9-8.663-13.866a29.775,29.775,0,0,0-21.159-8.759c-18.96,0-30.555,17.086-29.113,34.857.793,9.78,5.07,19.056,10.97,26.89C569.723,297.678,578.627,304.887,587.843,311.472Z" fill="#fff"/>
    </g>
  </g>
</svg>
